<svg id="ABC_x5F_cube" enable-background="new 0 0 300 300" height="512" viewBox="0 0 300 300" width="512" xmlns="http://www.w3.org/2000/svg"><g><circle cx="138" cy="133.902" fill="#e5efef" r="86"/><g><path d="m185.458 140.098h-74.916c-5.822 0-10.542-4.72-10.542-10.542v-71.111c0-5.822 4.72-10.542 10.542-10.542h74.916c5.822 0 10.542 4.72 10.542 10.542v71.111c0 5.822-4.72 10.542-10.542 10.542z" fill="#ffce56"/><path d="m185.458 144.097h-74.915c-8.019 0-14.542-6.523-14.542-14.542v-71.11c0-8.019 6.524-14.542 14.542-14.542h74.915c8.019 0 14.542 6.523 14.542 14.542v71.11c0 8.019-6.524 14.542-14.542 14.542zm-74.916-92.194c-3.607 0-6.542 2.935-6.542 6.542v71.11c0 3.607 2.935 6.542 6.542 6.542h74.915c3.607 0 6.542-2.935 6.542-6.542v-71.11c0-3.607-2.935-6.542-6.542-6.542z" fill="#4c241d"/></g><g><path d="m245.458 252.098h-74.916c-5.822 0-10.542-4.72-10.542-10.542v-71.111c0-5.822 4.72-10.542 10.542-10.542h74.916c5.822 0 10.542 4.72 10.542 10.542v71.111c0 5.822-4.72 10.542-10.542 10.542z" fill="#fc8c29"/><path d="m245.458 256.097h-74.915c-8.019 0-14.542-6.523-14.542-14.542v-71.11c0-8.019 6.524-14.542 14.542-14.542h74.915c8.019 0 14.542 6.523 14.542 14.542v71.11c0 8.019-6.524 14.542-14.542 14.542zm-74.916-92.194c-3.607 0-6.542 2.935-6.542 6.542v71.11c0 3.607 2.935 6.542 6.542 6.542h74.915c3.607 0 6.542-2.935 6.542-6.542v-71.11c0-3.607-2.935-6.542-6.542-6.542z" fill="#4c241d"/></g><g><path d="m129.458 252.098h-74.916c-5.822 0-10.542-4.72-10.542-10.542v-71.111c0-5.822 4.72-10.542 10.542-10.542h74.916c5.822 0 10.542 4.72 10.542 10.542v71.111c0 5.822-4.72 10.542-10.542 10.542z" fill="#9dc1e4"/><path d="m129.458 256.097h-74.916c-8.019 0-14.542-6.523-14.542-14.542v-71.11c0-8.019 6.524-14.542 14.542-14.542h74.915c8.019 0 14.542 6.523 14.542 14.542v71.11c.001 8.019-6.523 14.542-14.541 14.542zm-74.916-92.194c-3.607 0-6.542 2.935-6.542 6.542v71.11c0 3.607 2.935 6.542 6.542 6.542h74.915c3.607 0 6.542-2.935 6.542-6.542v-71.11c0-3.607-2.935-6.542-6.542-6.542z" fill="#4c241d"/></g><g fill="#4c241d"><path d="m92 235.903h-12c-2.209 0-4-1.791-4-4v-24c0-2.209 1.791-4 4-4h12c8.822 0 16 7.178 16 16s-7.178 16-16 16zm-8-8h8c4.411 0 8-3.589 8-8s-3.589-8-8-8h-8z"/><path d="m92 211.903h-12c-2.209 0-4-1.791-4-4v-24c0-2.209 1.791-4 4-4h12c8.822 0 16 7.178 16 16s-7.178 16-16 16zm-8-8h8c4.411 0 8-3.589 8-8s-3.589-8-8-8h-8z"/><path d="m162.346 126.065c-1.879 0-3.554-1.33-3.923-3.243l-8.909-46.179c-.324-1.682-1.802-2.901-3.514-2.901s-3.19 1.22-3.514 2.901l-8.909 46.179c-.418 2.17-2.518 3.584-4.686 3.17-2.169-.419-3.588-2.517-3.17-4.686l8.909-46.179c1.049-5.438 5.831-9.386 11.37-9.386s10.321 3.947 11.37 9.386l8.909 46.179c.418 2.169-1.001 4.267-3.17 4.686-.256.049-.512.073-.763.073z"/><path d="m155.811 99.903h-19.621c-2.209 0-4-1.791-4-4s1.791-4 4-4h19.621c2.209 0 4 1.791 4 4s-1.791 4-4 4z"/><path d="m216 235.903h-3.355c-11.384 0-20.645-9.262-20.645-20.646v-14.764c0-5.579 2.191-10.807 6.169-14.72 3.978-3.912 9.208-6.034 14.82-5.922l3.078.052c2.208.037 3.969 1.857 3.932 4.066-.037 2.186-1.82 3.933-3.998 3.933-.023 0-.046 0-.069-.001l-3.078-.052c-3.406-.026-6.64 1.231-9.076 3.628-2.437 2.396-3.779 5.599-3.779 9.016v14.764c0 6.973 5.672 12.646 12.645 12.646h3.356c2.209 0 4 1.791 4 4s-1.791 4-4 4z"/></g></g></svg>